<svg xmlns="http://www.w3.org/2000/svg" viewBox="0 0 340.93 152.08"><defs><style>.cls-1{fill:#fff;}.cls-2{fill:#333b89;}.cls-3{fill:#84bb6c;}.cls-4{fill:#89be70;}.cls-5{fill:none;stroke:#84bb6c;stroke-miterlimit:10;stroke-width:0.75px;}</style></defs><g id="TEXTS"><path class="cls-1" d="M203,324c0-1.07,0-1.88,0-2.69s.13-1.44.23-2.46c1.55,0,3.13-.36,4.4.11s1.94,1.76,2.88,2.7c-1,.78-1.83,1.92-2.94,2.25C206.22,324.31,204.68,324,203,324Z" transform="translate(-79.24 -173.96)"/><path class="cls-1" d="M304,326c1-2.2,1.84-4.1,2.93-6.55l2.93,6.55Z" transform="translate(-79.24 -173.96)"/><path class="cls-2" d="M309.4,245l13.22-6.9c4,8.11,10.81,12,19.33,13.32,6.7,1,13.28.49,19.45-2.64a10.63,10.63,0,0,0,6.24-10.2,9.38,9.38,0,0,0-6.38-9.21c-4.87-1.77-10.07-2.57-15.09-3.92-7.24-1.93-14.7-3.34-21.6-6.13-13.54-5.47-14.08-25.63-6.44-34.25,6.33-7.13,14.49-10,23.45-10.77,10.71-.92,21.41-.28,30.48,6.46,3.47,2.58,6.17,6.22,9.75,9.92l-13.37,7c-9-9.34-21.61-12.23-32.32-7.51-4.65,2.06-7.12,5.59-6.9,10,.24,4.75,3.57,7.18,7.48,8.21,5.91,1.54,12.08,2.08,18,3.47,5.31,1.24,10.74,2.51,15.67,4.75,9.6,4.36,13.84,12.77,13.24,23.32-.66,11.81-6.92,19.47-17.62,23.16-14.7,5.05-29.45,4.89-43.51-2.54C316.3,257.26,312.16,252,309.4,245Z" transform="translate(-79.24 -173.96)"/><path class="cls-2" d="M199.58,242.62c-2.37-2.58-5.08-5.29-7.44-8.29-.63-.79-.44-2.53-.12-3.7,3.07-11.27,2-22-5.2-31.34C175,184,149.17,186.57,140.05,203.58c-7.6,14.18-4.2,32.4,7.81,41.76,6.76,5.26,14.55,5.65,22.65,4.92a6.8,6.8,0,0,1,4.5,1.4c3.44,2.86,6.59,6,9.86,9.1l-.31,1.37c-4.24,1-8.43,2.4-12.73,2.92-17.51,2.12-35.61-2.84-45.51-20.1-10.1-17.61-7.78-42.4,5.84-57.32,7.05-7.72,16.25-11.43,26.48-12.45,13.31-1.33,26,.68,36.23,10,12.28,11.22,15.79,25.75,14.28,41.92C208.54,233.64,206.31,238.93,199.58,242.62Z" transform="translate(-79.24 -173.96)"/><path class="cls-2" d="M276.31,233.56l26.79,30.31c-6.76,0-12.79.09-18.81-.1-.88,0-1.84-1.23-2.56-2.06-7.08-8.1-14-16.31-21.24-24.28a9.2,9.2,0,0,0-5.45-2.52c-3.61-.4-7.3-.12-12.1-.12,5.19-5.16,9.51-9.61,14-13.84.75-.71,2.37-.59,3.61-.68,3.8-.29,7.72,0,11.41-.83,6.24-1.37,10.45-7.79,9.95-14.15-.52-6.69-5.61-12.58-12.06-12.86-9.18-.39-18.39-.1-27.59-.1-.14.22-.42.45-.38.62,1.36,7-2.42,11.42-7.24,15.59-3.06,2.65-5.7,5.78-9.14,9.34V177.1h8.59c11.53,0,23.06,0,34.59.08,14.8.14,25.86,8.93,28.66,22.8,2.72,13.5-3.21,29.37-19.21,32.59A9.16,9.16,0,0,0,276.31,233.56Z" transform="translate(-79.24 -173.96)"/><path class="cls-2" d="M241.79,235.73v27.88H225.41c0-3.47-.08-6.89.05-10.31A4,4,0,0,1,226.7,251C231.42,246.19,236.19,241.4,241.79,235.73Z" transform="translate(-79.24 -173.96)"/><polygon class="cls-3" points="87.84 58.95 87.84 42.02 124.93 77.5 173.78 26.69 191.49 26.69 121.71 96.86 87.84 58.95"/><path class="cls-4" d="M172.06,320.83c.13,1.71.86,3.1,2.53,3.1s2.36-1,2.36-2.84-.66-2.68-2.77-3.8c-2.5-1.31-3.58-2.52-3.58-5s1.42-4.35,4-4.35c3.12,0,4,2.44,4,4.51h-1.9c-.08-.87-.31-2.76-2.16-2.76-1.44,0-2.05,1.07-2.05,2.41,0,1.58.64,2.32,2.58,3.34,2.76,1.44,3.82,2.87,3.82,5.5s-1.43,4.77-4.4,4.77c-3.23,0-4.28-2.32-4.4-4.85Z" transform="translate(-79.24 -173.96)"/><path class="cls-4" d="M192.83,317.25h-5.2v6.31h5.79l-.26,1.87h-7.44V308.15h7.37V310h-5.46v5.34h5.2Z" transform="translate(-79.24 -173.96)"/><path class="cls-4" d="M201.82,317.58v7.85H199.9V308.15h4.24c2.67,0,4.1,1.64,4.1,4.51,0,2.57-1.17,3.66-2.09,4,1.41.58,1.88,1.94,1.88,4.39v.68a21.7,21.7,0,0,0,.22,3.68h-1.9a17.59,17.59,0,0,1-.24-3.72v-.59c0-2.43-.46-3.54-2.51-3.54Zm0-1.78h1.88c1.87,0,2.58-1.11,2.58-3.07,0-1.69-.71-2.8-2.39-2.8h-2.07Z" transform="translate(-79.24 -173.96)"/><path class="cls-4" d="M218.06,325.43l-3.89-17.28h2.08l1.68,8c.5,2.39,1.07,5.32,1.27,7h0c.2-1.54.92-4.58,1.44-7l1.71-8.05h2l-4,17.28Z" transform="translate(-79.24 -173.96)"/><path class="cls-4" d="M232.6,308.15v17.28h-1.93V308.15Z" transform="translate(-79.24 -173.96)"/><path class="cls-4" d="M248.66,320.6c-.07,1-.45,5.09-4.36,5.09-4.23,0-4.59-4.76-4.59-9,0-5.13,1.26-8.78,4.78-8.78,3.85,0,4.08,3.9,4.13,5h-1.94c0-.58-.12-3.16-2.23-3.16-2.34,0-2.73,3.47-2.73,6.94s.36,7.14,2.63,7.14c2,0,2.29-2.41,2.36-3.24Z" transform="translate(-79.24 -173.96)"/><path class="cls-4" d="M262.47,317.25h-5.2v6.31h5.78l-.25,1.87h-7.44V308.15h7.36V310h-5.45v5.34h5.2Z" transform="translate(-79.24 -173.96)"/><path class="cls-4" d="M270.87,320.83c.13,1.71.86,3.1,2.52,3.1s2.37-1,2.37-2.84-.66-2.68-2.77-3.8c-2.5-1.31-3.58-2.52-3.58-5s1.42-4.35,4-4.35c3.12,0,3.95,2.44,4,4.51h-1.9c-.08-.87-.31-2.76-2.16-2.76-1.44,0-2.05,1.07-2.05,2.41,0,1.58.64,2.32,2.58,3.34,2.76,1.44,3.81,2.87,3.81,5.5s-1.42,4.77-4.39,4.77c-3.23,0-4.28-2.32-4.4-4.85Z" transform="translate(-79.24 -173.96)"/><path class="cls-4" d="M293.62,308.15h1.93v15.42h5.57l-.26,1.86h-7.24Z" transform="translate(-79.24 -173.96)"/><path class="cls-4" d="M307.3,308.15h1.93v15.42h5.56l-.25,1.86H307.3Z" transform="translate(-79.24 -173.96)"/><path class="cls-4" d="M328.91,320.6c-.07,1-.45,5.09-4.36,5.09-4.23,0-4.58-4.76-4.58-9,0-5.13,1.26-8.78,4.77-8.78,3.86,0,4.09,3.9,4.13,5h-1.93c0-.58-.12-3.16-2.23-3.16-2.34,0-2.73,3.47-2.73,6.94s.35,7.14,2.62,7.14c2,0,2.3-2.41,2.37-3.24Z" transform="translate(-79.24 -173.96)"/><line class="cls-5" y1="143.97" x2="85.47" y2="143.97"/><line class="cls-5" x1="255.04" y1="143.97" x2="340.51" y2="143.97"/><path class="cls-2" d="M101.89,289.79c0,6.08-3.31,11.31-9.76,11.31-6.23,0-9.49-5-9.49-11.23s3.6-11.24,9.77-11.24C98.21,278.63,101.89,283.11,101.89,289.79Zm-14.82,0c0,4.27,1.7,7.49,5.22,7.49,3.82,0,5.17-3.52,5.17-7.41,0-4.13-1.54-7.38-5.24-7.38S87.07,285.52,87.07,289.77Zm10.64,7.67,5.65,4.26-2.49,3.14-7-5.34Z" transform="translate(-79.24 -173.96)"/><path class="cls-2" d="M109.73,279v13c0,4.19,2,5.43,4.1,5.43,2.46,0,4-1.46,4-5.43V279h4.3v12.78c0,7.46-4,9.37-8.35,9.37s-8.34-2-8.34-9.28V279Z" transform="translate(-79.24 -173.96)"/><path class="cls-2" d="M130,295.74l-1.55,5.05h-4.22L131,279h5.39l7,21.84h-4.52l-1.63-5.05Zm6.33-3.87c-1.41-4.61-2.31-7.55-2.79-9.51h0c-.49,2.15-1.48,5.57-2.61,9.51Z" transform="translate(-79.24 -173.96)"/><path class="cls-2" d="M146,279h4.3v18h9.89l-.5,3.87H146Z" transform="translate(-79.24 -173.96)"/><path class="cls-2" d="M167,279v21.84h-4.3V279Z" transform="translate(-79.24 -173.96)"/><path class="cls-2" d="M176,282.82h-6V279h16.33v3.87h-6v18H176Z" transform="translate(-79.24 -173.96)"/><path class="cls-2" d="M194.8,300.79v-7.72a1.25,1.25,0,0,0-.17-.7L187.79,279h4.86c1.53,3.29,3.52,7.68,4.51,10.05.87-2.29,3-6.89,4.54-10.05h4.49l-6.93,13.35a1.12,1.12,0,0,0-.16.7v7.79Z" transform="translate(-79.24 -173.96)"/><path class="cls-2" d="M219.42,292.05v8.74h-4.19V279H224c4.33,0,6.66,2.62,6.66,6,0,2.93-1.45,4.52-2.89,5.17,1,.4,2.47,1.53,2.47,5.44v1.07a18.75,18.75,0,0,0,.29,4.17h-4.07a16.77,16.77,0,0,1-.42-4.91v-.32c0-2.38-.54-3.51-3.74-3.51Zm0-3.76H223c2.35,0,3.26-1,3.26-2.81s-1.06-2.77-3.16-2.77h-3.7Z" transform="translate(-79.24 -173.96)"/><path class="cls-2" d="M248.09,291.37H238.6v5.55h10.47l-.51,3.87H234.43V279h14.08v3.87H238.6v4.68h9.49Z" transform="translate(-79.24 -173.96)"/><path class="cls-2" d="M269.73,300.79h-3.15a14.56,14.56,0,0,1-.33-2.16c-1.1,1.64-3,2.52-5.79,2.52-5.77,0-9-4.79-9-11,0-6.56,3.47-11.51,9.72-11.51,5.11,0,8.12,3.17,8.6,6.9h-4.29a4.1,4.1,0,0,0-4.36-3.2c-4.08,0-5.24,3.76-5.24,7.6s1.33,7.46,5.26,7.46c3.67,0,4.35-2.8,4.35-4.75v-.2h-4.35v-3.87h8.56Z" transform="translate(-79.24 -173.96)"/><path class="cls-2" d="M278.4,279v21.84h-4.29V279Z" transform="translate(-79.24 -173.96)"/><path class="cls-2" d="M285.91,294.39c.45,2.19,1.88,3.15,4.18,3.15s3.27-1,3.27-2.59c0-1.78-.95-2.55-4.35-3.42-5.4-1.4-6.74-3.56-6.74-6.51,0-3.8,2.59-6.39,7.29-6.39,5.27,0,7.37,3.12,7.65,6.31h-4.32c-.21-1.34-.88-2.8-3.44-2.8-1.74,0-2.79.79-2.79,2.34s.84,2.14,4,2.95c5.78,1.5,7,3.86,7,6.94,0,4-2.74,6.73-8,6.73-5,0-7.69-2.73-8.16-6.71Z" transform="translate(-79.24 -173.96)"/><path class="cls-2" d="M305.08,282.82h-6V279h16.33v3.87h-6v18h-4.3Z" transform="translate(-79.24 -173.96)"/><path class="cls-2" d="M322.24,292.05v8.74H318V279h8.73c4.32,0,6.65,2.62,6.65,6,0,2.93-1.44,4.52-2.88,5.17,1,.4,2.47,1.53,2.47,5.44v1.07a19.43,19.43,0,0,0,.28,4.17h-4.07a16.86,16.86,0,0,1-.41-4.91v-.32c0-2.38-.55-3.51-3.75-3.51Zm0-3.76h3.6c2.35,0,3.25-1,3.25-2.81s-1-2.77-3.15-2.77h-3.7Z" transform="translate(-79.24 -173.96)"/><path class="cls-2" d="M341.31,295.74l-1.54,5.05h-4.22L342.29,279h5.39l7,21.84H350.2l-1.63-5.05Zm6.33-3.87c-1.41-4.61-2.31-7.55-2.78-9.51h0c-.49,2.15-1.48,5.57-2.61,9.51Z" transform="translate(-79.24 -173.96)"/><path class="cls-2" d="M359.15,282.82h-6V279h16.34v3.87h-6v18h-4.3Z" transform="translate(-79.24 -173.96)"/><path class="cls-2" d="M376.41,279v21.84h-4.29V279Z" transform="translate(-79.24 -173.96)"/><path class="cls-2" d="M399.4,289.79c0,6.08-3.32,11.31-9.76,11.31-6.23,0-9.49-5-9.49-11.23s3.6-11.24,9.76-11.24C395.72,278.63,399.4,283.11,399.4,289.79Zm-14.82,0c0,4.27,1.7,7.49,5.22,7.49,3.82,0,5.17-3.52,5.17-7.41,0-4.13-1.54-7.38-5.24-7.38S384.58,285.52,384.58,289.77Z" transform="translate(-79.24 -173.96)"/><path class="cls-2" d="M403.15,300.79V279h5.32c2.48,4.9,7.07,13.75,8,16.13h.05c-.22-2.28-.22-6.08-.22-9.66V279h3.89v21.84h-5c-2.14-4.27-7.22-14.43-8.2-17h-.05c.14,1.91.19,6.39.19,10.31v6.64Z" transform="translate(-79.24 -173.96)"/></g></svg>