<svg xmlns="http://www.w3.org/2000/svg" viewBox="0 0 188.36 86.74"><defs><style>.cls-1{fill:#283b8b;}.cls-2{fill:#00a651;}.cls-3{fill:#2a8a42;stroke:#fff;}.cls-3,.cls-4{stroke-miterlimit:10;}.cls-4{fill:none;stroke:#00a651;}</style></defs><g id="Layer_2" data-name="Layer 2"><g id="Layer_1-2" data-name="Layer 1"><path class="cls-1" d="M45.13,63.68A28.8,28.8,0,0,1,34.08,61.6a27.47,27.47,0,0,1-8.89-5.84,26.85,26.85,0,0,1-6-8.82,27.72,27.72,0,0,1-2.16-11,28.31,28.31,0,0,1,2.12-11,26.32,26.32,0,0,1,5.94-8.78A27.93,27.93,0,0,1,34,10.4,29.11,29.11,0,0,1,45.13,8.32,29.11,29.11,0,0,1,56.22,10.4a27.54,27.54,0,0,1,8.93,5.84A26.73,26.73,0,0,1,71.09,25,28,28,0,0,1,73.21,36a27.72,27.72,0,0,1-2.16,11,26.85,26.85,0,0,1-6,8.82,27.47,27.47,0,0,1-8.89,5.84A28.8,28.8,0,0,1,45.13,63.68Zm0-8.92a18.2,18.2,0,0,0,7.2-1.41A17.57,17.57,0,0,0,62,43.45,20.19,20.19,0,0,0,63.35,36,19.94,19.94,0,0,0,62,28.51a18.14,18.14,0,0,0-3.85-6,17,17,0,0,0-5.8-3.93,19.6,19.6,0,0,0-14.4,0,17,17,0,0,0-5.8,3.93,18.14,18.14,0,0,0-3.85,6A19.94,19.94,0,0,0,26.91,36a20.19,20.19,0,0,0,1.37,7.49,17.57,17.57,0,0,0,9.65,9.9A18.2,18.2,0,0,0,45.13,54.76Z" transform="translate(-0.77 -8.32)"/><path class="cls-1" d="M81.85,62.82V9.18h20a22.55,22.55,0,0,1,9.69,2,15.28,15.28,0,0,1,6.59,5.76,17.07,17.07,0,0,1,2.37,9.25,16.52,16.52,0,0,1-2.62,9.4,15.61,15.61,0,0,1-7.1,5.79L123.1,62.82H112L98.77,39.28,105.18,43H91.71v19.8Zm9.86-28.44H102a9.71,9.71,0,0,0,4.61-1,7.58,7.58,0,0,0,3-2.92,8.5,8.5,0,0,0,1.08-4.32,8.47,8.47,0,0,0-1.08-4.36,7.69,7.69,0,0,0-3-2.88,9.71,9.71,0,0,0-4.61-1H91.71Z" transform="translate(-0.77 -8.32)"/><path class="cls-1" d="M148.59,63.68a23.46,23.46,0,0,1-9.39-1.87,22.06,22.06,0,0,1-7.49-5.22,21.24,21.24,0,0,1-4.65-7.81l8.21-3.53a16.61,16.61,0,0,0,5.62,7.24,13.91,13.91,0,0,0,8.28,2.63,11.26,11.26,0,0,0,4.5-.83,7,7,0,0,0,3-2.27,5.7,5.7,0,0,0,1-3.46,5.44,5.44,0,0,0-1.4-3.88,9.89,9.89,0,0,0-4.21-2.45l-10.3-3.31a19.49,19.49,0,0,1-9.47-5.8,13.93,13.93,0,0,1-3.2-9.18,14.63,14.63,0,0,1,2.3-8.14,15.54,15.54,0,0,1,6.38-5.5,21,21,0,0,1,9.32-2A22.64,22.64,0,0,1,155.94,10a20.94,20.94,0,0,1,6.94,4.68,19,19,0,0,1,4.36,7l-8.14,3.6a12.88,12.88,0,0,0-4.71-6.19,12.47,12.47,0,0,0-7.31-2.24,10.64,10.64,0,0,0-4.32.83,6.77,6.77,0,0,0-2.92,2.34,6,6,0,0,0-1,3.46,5.86,5.86,0,0,0,1.44,3.92,9.24,9.24,0,0,0,4.39,2.63l9.87,3.1q6.41,2.09,9.61,5.76a13.32,13.32,0,0,1,3.2,9.07,14.23,14.23,0,0,1-2.37,8.13,16.2,16.2,0,0,1-6.56,5.55A22.31,22.31,0,0,1,148.59,63.68Z" transform="translate(-0.77 -8.32)"/><path class="cls-1" d="M11.47,73.46c0,3.08-1.84,5.72-5.43,5.72S.77,76.66.77,73.5s2-5.68,5.43-5.68C9.43,67.82,11.47,70.09,11.47,73.46Zm-8.24,0c0,2.16.95,3.79,2.91,3.79C8.26,77.24,9,75.46,9,73.49s-.86-3.72-2.91-3.72S3.23,71.31,3.23,73.45Zm5.92,3.88,3.14,2.15-1.38,1.59L7,78.37Z" transform="translate(-0.77 -8.32)"/><path class="cls-1" d="M15.83,68v6.58c0,2.12,1.09,2.74,2.28,2.74,1.36,0,2.22-.74,2.22-2.74V68h2.39v6.46c0,3.77-2.21,4.74-4.64,4.74s-4.64-1-4.64-4.69V68Z" transform="translate(-0.77 -8.32)"/><path class="cls-1" d="M27.1,76.47,26.23,79H23.89l3.75-11h3l3.91,11H32l-.9-2.55Zm3.51-2c-.78-2.32-1.28-3.81-1.55-4.8h0c-.27,1.08-.83,2.81-1.45,4.8Z" transform="translate(-0.77 -8.32)"/><path class="cls-1" d="M36,68h2.38v9.08h5.5l-.27,2H36Z" transform="translate(-0.77 -8.32)"/><path class="cls-1" d="M47.64,68V79H45.25V68Z" transform="translate(-0.77 -8.32)"/><path class="cls-1" d="M52.62,69.94H49.27V68h9.08v2H55V79H52.62Z" transform="translate(-0.77 -8.32)"/><path class="cls-1" d="M63.1,79v-3.9a.63.63,0,0,0-.09-.35L59.2,68h2.7c.85,1.67,2,3.88,2.51,5.08.48-1.15,1.69-3.48,2.52-5.08h2.5l-3.85,6.75a.51.51,0,0,0-.09.35V79Z" transform="translate(-0.77 -8.32)"/><path class="cls-1" d="M76.78,74.6V79H74.45V68H79.3c2.41,0,3.7,1.33,3.7,3a2.64,2.64,0,0,1-1.6,2.61c.54.21,1.37.78,1.37,2.75v.55a8.38,8.38,0,0,0,.16,2.1H80.67a7.53,7.53,0,0,1-.24-2.48v-.16c0-1.21-.3-1.78-2.08-1.78Zm0-1.9h2c1.31,0,1.81-.49,1.81-1.42s-.58-1.4-1.75-1.4H76.78Z" transform="translate(-0.77 -8.32)"/><path class="cls-1" d="M92.71,74.26H87.44v2.8h5.82L93,79H85.12V68H93v2H87.44V72.3h5.27Z" transform="translate(-0.77 -8.32)"/><path class="cls-1" d="M104.74,79H103a6.36,6.36,0,0,1-.18-1.09,3.77,3.77,0,0,1-3.23,1.27c-3.2,0-5-2.42-5-5.56,0-3.32,1.93-5.82,5.41-5.82,2.84,0,4.51,1.61,4.78,3.49h-2.39A2.23,2.23,0,0,0,100,69.7c-2.27,0-2.91,1.89-2.91,3.84S97.8,77.3,100,77.3a2.18,2.18,0,0,0,2.42-2.4v-.1H100v-2h4.76Z" transform="translate(-0.77 -8.32)"/><path class="cls-1" d="M109.56,68V79h-2.39V68Z" transform="translate(-0.77 -8.32)"/><path class="cls-1" d="M113.73,75.78a2,2,0,0,0,2.32,1.6c1.28,0,1.82-.5,1.82-1.31s-.53-1.29-2.42-1.73c-3-.7-3.74-1.8-3.74-3.29,0-1.92,1.44-3.23,4.05-3.23,2.93,0,4.09,1.58,4.25,3.19h-2.4c-.12-.68-.49-1.41-1.91-1.41-1,0-1.56.4-1.56,1.18s.47,1.08,2.25,1.49c3.21.76,3.92,2,3.92,3.51,0,2-1.53,3.4-4.44,3.4s-4.28-1.38-4.54-3.4Z" transform="translate(-0.77 -8.32)"/><path class="cls-1" d="M124.38,69.94H121V68h9.08v2h-3.34V79h-2.39Z" transform="translate(-0.77 -8.32)"/><path class="cls-1" d="M133.92,74.6V79h-2.33V68h4.84c2.41,0,3.71,1.33,3.71,3a2.63,2.63,0,0,1-1.61,2.61c.55.21,1.37.78,1.37,2.75v.55a8.87,8.87,0,0,0,.16,2.1H137.8a7.9,7.9,0,0,1-.23-2.48v-.16c0-1.21-.3-1.78-2.08-1.78Zm0-1.9h2c1.3,0,1.81-.49,1.81-1.42s-.59-1.4-1.76-1.4h-2.05Z" transform="translate(-0.77 -8.32)"/><path class="cls-1" d="M144.52,76.47,143.66,79h-2.35l3.75-11h3L152,79h-2.5l-.91-2.55Zm3.51-2c-.78-2.32-1.28-3.81-1.55-4.8h0c-.27,1.08-.82,2.81-1.45,4.8Z" transform="translate(-0.77 -8.32)"/><path class="cls-1" d="M154.43,69.94h-3.36V68h9.09v2h-3.34V79h-2.39Z" transform="translate(-0.77 -8.32)"/><path class="cls-1" d="M164,68V79h-2.39V68Z" transform="translate(-0.77 -8.32)"/><path class="cls-1" d="M176.8,73.46c0,3.08-1.85,5.72-5.43,5.72s-5.28-2.52-5.28-5.68,2-5.68,5.43-5.68C174.75,67.82,176.8,70.09,176.8,73.46Zm-8.24,0c0,2.16.94,3.79,2.9,3.79,2.12,0,2.87-1.78,2.87-3.75s-.85-3.72-2.91-3.72S168.56,71.31,168.56,73.45Z" transform="translate(-0.77 -8.32)"/><path class="cls-1" d="M178.88,79V68h3c1.38,2.48,3.92,7,4.43,8.15h0c-.12-1.15-.12-3.07-.12-4.88V68h2.16V79h-2.8c-1.19-2.16-4-7.29-4.56-8.57h0c.08,1,.11,3.24.11,5.21V79Z" transform="translate(-0.77 -8.32)"/><path class="cls-2" d="M47.29,92.31c.33,1.3,1.28,2.07,3,2.07,2,0,2.7-.9,2.7-2s-.53-1.79-2.89-2.33-3.24-1.19-3.24-2.6,1-2.49,3.32-2.49,3.35,1.31,3.49,2.5h-.86c-.24-1-1-1.8-2.68-1.8s-2.39.65-2.39,1.75.71,1.5,2.68,1.94c3,.69,3.46,1.8,3.46,3,0,1.45-1.15,2.69-3.63,2.69-2.67,0-3.65-1.43-3.85-2.74Z" transform="translate(-0.77 -8.32)"/><path class="cls-2" d="M62.55,90.12H57.09v4.12h6l-.12.7H56.26v-9.8h6.57v.7H57.09v3.58h5.46Z" transform="translate(-0.77 -8.32)"/><path class="cls-2" d="M66,90.36v4.58h-.85v-9.8H69c2.12,0,3.23,1,3.23,2.57a2.28,2.28,0,0,1-2,2.3c1.1.24,1.84.9,1.84,2.56V93a6,6,0,0,0,.13,2h-.84a6,6,0,0,1-.15-2v-.26c0-1.61-.52-2.28-2.57-2.28Zm0-.7h2.58c1.88,0,2.76-.64,2.76-1.93s-.86-1.89-2.53-1.89H66Z" transform="translate(-0.77 -8.32)"/><path class="cls-2" d="M77.62,94.94l-4-9.8h.88l2.08,5.12c.6,1.49,1.27,3.13,1.5,3.95h0c.22-.73,1-2.45,1.56-3.89l2.15-5.18h.88l-4.14,9.8Z" transform="translate(-0.77 -8.32)"/><path class="cls-2" d="M85.38,85.14v9.8h-.82v-9.8Z" transform="translate(-0.77 -8.32)"/><path class="cls-2" d="M96.46,92.32a3.86,3.86,0,0,1-4,2.73c-3.08,0-4.7-2.24-4.7-5s1.59-5,4.71-5c2.31,0,3.68,1.17,4,2.81h-.83a3.08,3.08,0,0,0-3.24-2.11c-2.67,0-3.78,2.22-3.78,4.34s1.1,4.31,3.84,4.31a3.14,3.14,0,0,0,3.17-2Z" transform="translate(-0.77 -8.32)"/><path class="cls-2" d="M105.06,90.12H99.6v4.12h6l-.12.7H98.77v-9.8h6.57v.7H99.6v3.58h5.46Z" transform="translate(-0.77 -8.32)"/><path class="cls-2" d="M107.86,92.31c.32,1.3,1.27,2.07,3,2.07,2,0,2.71-.9,2.71-2s-.53-1.79-2.89-2.33-3.25-1.19-3.25-2.6,1-2.49,3.33-2.49,3.35,1.31,3.48,2.5h-.85c-.25-1-1-1.8-2.68-1.8s-2.39.65-2.39,1.75.71,1.5,2.68,1.94c3,.69,3.46,1.8,3.46,3,0,1.45-1.15,2.69-3.63,2.69-2.68,0-3.66-1.43-3.86-2.74Z" transform="translate(-0.77 -8.32)"/><path class="cls-2" d="M120.75,85.14h.82v9.1h5.76l-.16.7h-6.42Z" transform="translate(-0.77 -8.32)"/><path class="cls-2" d="M129,85.14h.83v9.1h5.75l-.15.7H129Z" transform="translate(-0.77 -8.32)"/><path class="cls-2" d="M145,92.32a3.86,3.86,0,0,1-4,2.73c-3.08,0-4.7-2.24-4.7-5s1.59-5,4.71-5c2.31,0,3.67,1.17,4,2.81h-.83a3.08,3.08,0,0,0-3.24-2.11c-2.67,0-3.78,2.22-3.78,4.34s1.1,4.31,3.84,4.31a3.14,3.14,0,0,0,3.17-2Z" transform="translate(-0.77 -8.32)"/><polyline class="cls-3" points="47.74 35.32 65.8 57.11 104.26 16.94 100.85 16.94 65.8 50.64 47.74 28.85"/><line class="cls-4" x1="1.8" y1="82.58" x2="45.06" y2="82.58"/><line class="cls-4" x1="145.09" y1="82.49" x2="188.36" y2="82.49"/></g></g></svg>